HIERARCHY
ROOT Hips
{
	OFFSET 8.91173 92.52490 -21.95620
	CHANNELS 6 Xposition Yposition Zposition Zrotation Xrotation Yrotation
	JOINT Spine
	{
		OFFSET 0.00000 14.09320 -1.51142
		CHANNELS 3 Zrotation Xrotation Yrotation
		JOINT Spine1
		{
			OFFSET 0.00000 8.69660 0.00000
			CHANNELS 3 Zrotation Xrotation Yrotation
			JOINT Spine2
			{
				OFFSET 0.00000 8.69660 0.00000
				CHANNELS 3 Zrotation Xrotation Yrotation
				JOINT Spine3
				{
					OFFSET 0.00000 8.69660 0.00000
					CHANNELS 3 Zrotation Xrotation Yrotation
					JOINT Neck
					{
						OFFSET 0.00000 11.18130 1.11813
						CHANNELS 3 Zrotation Xrotation Yrotation
						JOINT Neck1
						{
							OFFSET 0.00000 5.70631 0.00000
							CHANNELS 3 Zrotation Xrotation Yrotation
							JOINT Head
							{
								OFFSET 0.00000 5.70631 0.00000
								CHANNELS 3 Zrotation Xrotation Yrotation
								End site
								{
									OFFSET 0.00000 9.71257 0.00000
								}
							}
						}
					}
					JOINT RightShoulder
					{
						OFFSET 0.00000 7.98668 5.19711
						CHANNELS 3 Zrotation Xrotation Yrotation
						JOINT RightArm
						{
							OFFSET 0.00000 18.31580 0.00000
							CHANNELS 3 Zrotation Xrotation Yrotation
							JOINT RightForeArm
							{
								OFFSET 0.00000 28.87420 0.00000
								CHANNELS 3 Zrotation Xrotation Yrotation
								JOINT RightHand
								{
									OFFSET 0.00000 23.87720 0.00000
									CHANNELS 3 Zrotation Xrotation Yrotation
									JOINT RightHandThumb1
									{
										OFFSET -2.41094 4.67063 3.47303
										CHANNELS 3 Zrotation Xrotation Yrotation
										JOINT RightHandThumb2
										{
											OFFSET 0.00000 3.95207 0.00000
											CHANNELS 3 Zrotation Xrotation Yrotation
											JOINT RightHandThumb3
											{
												OFFSET 0.00000 2.15568 0.00000
												CHANNELS 3 Zrotation Xrotation Yrotation
												End site
												{
													OFFSET 0.00000 1.91616 0.00000
												}
											}
										}
									}
									JOINT RightHandIndex1
									{
										OFFSET 0.00000 12.45500 2.51496
										CHANNELS 3 Zrotation Xrotation Yrotation
										JOINT RightHandIndex2
										{
											OFFSET 0.00000 4.79039 0.00000
											CHANNELS 3 Zrotation Xrotation Yrotation
											JOINT RightHandIndex3
											{
												OFFSET 0.00000 2.63472 0.00000
												CHANNELS 3 Zrotation Xrotation Yrotation
												End site
												{
													OFFSET 0.00000 1.91616 0.00000
												}
											}
										}
									}
									JOINT RightHandMiddle1
									{
										OFFSET 0.00000 12.45500 -0.07984
										CHANNELS 3 Zrotation Xrotation Yrotation
										JOINT RightHandMiddle2
										{
											OFFSET 0.00000 5.38919 0.00000
											CHANNELS 3 Zrotation Xrotation Yrotation
											JOINT RightHandMiddle3
											{
												OFFSET 0.00000 3.11376 0.00000
												CHANNELS 3 Zrotation Xrotation Yrotation
												End site
												{
													OFFSET 0.00000 2.03592 0.00000
												}
											}
										}
									}
									JOINT RightHandRing1
									{
										OFFSET 0.00000 11.07780 -2.67464
										CHANNELS 3 Zrotation Xrotation Yrotation
										JOINT RightHandRing2
										{
											OFFSET 0.00000 4.91015 0.00000
											CHANNELS 3 Zrotation Xrotation Yrotation
											JOINT RightHandRing3
											{
												OFFSET 0.00000 3.11376 0.00000
												CHANNELS 3 Zrotation Xrotation Yrotation
												End site
												{
													OFFSET 0.00000 2.03592 0.00000
												}
											}
										}
									}
									JOINT RightHandPinky1
									{
										OFFSET 0.00000 9.70055 -5.26943
										CHANNELS 3 Zrotation Xrotation Yrotation
										JOINT RightHandPinky2
										{
											OFFSET 0.00000 3.95207 0.00000
											CHANNELS 3 Zrotation Xrotation Yrotation
											JOINT RightHandPinky3
											{
												OFFSET 0.00000 2.15568 0.00000
												CHANNELS 3 Zrotation Xrotation Yrotation
												End site
												{
													OFFSET 0.00000 1.91616 0.00000
												}
											}
										}
									}
								}
							}
						}
					}
					JOINT LeftShoulder
					{
						OFFSET 0.00000 7.98668 5.19711
						CHANNELS 3 Zrotation Xrotation Yrotation
						JOINT LeftArm
						{
							OFFSET 0.00000 18.31580 0.00000
							CHANNELS 3 Zrotation Xrotation Yrotation
							JOINT LeftForeArm
							{
								OFFSET 0.00000 28.87420 0.00000
								CHANNELS 3 Zrotation Xrotation Yrotation
								JOINT LeftHand
								{
									OFFSET 0.00000 23.87720 0.00000
									CHANNELS 3 Zrotation Xrotation Yrotation
									JOINT LeftHandThumb1
									{
										OFFSET 2.41094 4.67063 3.47303
										CHANNELS 3 Zrotation Xrotation Yrotation
										JOINT LeftHandThumb2
										{
											OFFSET 0.00000 3.95207 0.00000
											CHANNELS 3 Zrotation Xrotation Yrotation
											JOINT LeftHandThumb3
											{
												OFFSET 0.00000 2.15568 0.00000
												CHANNELS 3 Zrotation Xrotation Yrotation
												End site
												{
													OFFSET 0.00000 1.60000 0.00000
												}
											}
										}
									}
									JOINT LeftHandIndex1
									{
										OFFSET 0.00000 12.45500 2.51496
										CHANNELS 3 Zrotation Xrotation Yrotation
										JOINT LeftHandIndex2
										{
											OFFSET 0.00000 4.79039 0.00000
											CHANNELS 3 Zrotation Xrotation Yrotation
											JOINT LeftHandIndex3
											{
												OFFSET 0.00000 2.63472 0.00000
												CHANNELS 3 Zrotation Xrotation Yrotation
												End site
												{
													OFFSET 0.00000 1.91616 0.00000
												}
											}
										}
									}
									JOINT LeftHandMiddle1
									{
										OFFSET 0.00000 12.45500 -0.07984
										CHANNELS 3 Zrotation Xrotation Yrotation
										JOINT LeftHandMiddle2
										{
											OFFSET 0.00000 5.38919 0.00000
											CHANNELS 3 Zrotation Xrotation Yrotation
											JOINT LeftHandMiddle3
											{
												OFFSET 0.00000 3.11376 0.00000
												CHANNELS 3 Zrotation Xrotation Yrotation
												End site
												{
													OFFSET 0.00000 2.03592 0.00000
												}
											}
										}
									}
									JOINT LeftHandRing1
									{
										OFFSET 0.00000 11.07780 -2.67464
										CHANNELS 3 Zrotation Xrotation Yrotation
										JOINT LeftHandRing2
										{
											OFFSET 0.00000 4.91015 0.00000
											CHANNELS 3 Zrotation Xrotation Yrotation
											JOINT LeftHandRing3
											{
												OFFSET 0.00000 3.11376 0.00000
												CHANNELS 3 Zrotation Xrotation Yrotation
												End site
												{
													OFFSET 0.00000 2.03592 0.00000
												}
											}
										}
									}
									JOINT LeftHandPinky1
									{
										OFFSET 0.00000 9.70055 -5.26943
										CHANNELS 3 Zrotation Xrotation Yrotation
										JOINT LeftHandPinky2
										{
											OFFSET 0.00000 3.95207 0.00000
											CHANNELS 3 Zrotation Xrotation Yrotation
											JOINT LeftHandPinky3
											{
												OFFSET 0.00000 2.15568 0.00000
												CHANNELS 3 Zrotation Xrotation Yrotation
												End site
												{
													OFFSET 0.00000 1.91616 0.00000
												}
											}
										}
									}
								}
							}
						}
					}
				}
			}
		}
	}
	JOINT RightUpLeg
	{
		OFFSET -10.06560 0.00000 0.00000
		CHANNELS 3 Zrotation Xrotation Yrotation
		JOINT RightLeg
		{
			OFFSET 0.00000 -42.98740 0.00000
			CHANNELS 3 Zrotation Xrotation Yrotation
			JOINT RightFoot
			{
				OFFSET 0.00000 -44.62500 0.00000
				CHANNELS 3 Zrotation Xrotation Yrotation
				JOINT RightForeFoot
				{
					OFFSET 0.00000 -3.74821 0.00000
					CHANNELS 3 Zrotation Xrotation Yrotation
					JOINT RightToeBase
					{
						OFFSET 0.00000 0.00000 14.67920
						CHANNELS 3 Zrotation Xrotation Yrotation
						End site
						{
							OFFSET 0.00000 0.00000 10.36040
						}
					}
				}
			}
		}
	}
	JOINT LeftUpLeg
	{
		OFFSET 10.06560 0.00000 0.00000
		CHANNELS 3 Zrotation Xrotation Yrotation
		JOINT LeftLeg
		{
			OFFSET 0.00000 -42.98740 0.00000
			CHANNELS 3 Zrotation Xrotation Yrotation
			JOINT LeftFoot
			{
				OFFSET 0.00000 -44.62500 0.00000
				CHANNELS 3 Zrotation Xrotation Yrotation
				JOINT LeftForeFoot
				{
					OFFSET 0.00000 -3.74821 0.00000
					CHANNELS 3 Zrotation Xrotation Yrotation
					JOINT LeftToeBase
					{
						OFFSET 0.00000 0.00000 14.67920
						CHANNELS 3 Zrotation Xrotation Yrotation
						End site
						{
							OFFSET 0.00000 0.00000 10.67280
						}
					}
				}
			}
		}
	}
}
MOTION
Frames: 5
Frame Time: 0.016667
-3.12948 91.5777 -20.6551 -11.6591 9.85425 -168.994 -11.1598 9.8434 0.379236 -2.14624 6.56646 0.947023 -1.78386 2.62465 1.29845 3.04571 1.70385 -0.950485 -0.0409268 8.29593 0.756096 0.416521 -3.28143 -3.58624 0.694426 -17.1461 -0.358434 103.39 -15.0686 3.54124 62.2556 8.75508 -22.9159 -1.48718e-05 36.0931 -13.0856 12.0389 -6.77472 1.59103e-05 -4.00151 10.6197 0.738618 6.36111e-15 -6.36111e-15 3.18055e-15 -3.18055e-15 0.0 -3.18055e-15 3.79151 0.0 -3.18055e-15 -3.18055e-15 0.0 3.18055e-15 1.59028e-15 0.0 -9.54166e-15 12.7179 1.59028e-15 3.18055e-15 -3.53113e-31 1.59028e-15 1.27222e-14 3.18055e-15 6.36111e-15 -3.18055e-15 20.451 0.0 -0.0 -1.59028e-15 2.38542e-15 3.18055e-15 -3.97569e-15 -1.59028e-15 -0.0 43.7139 1.59028e-15 -6.36111e-15 7.95139e-16 -3.18055e-15 3.18055e-15 1.59028e-15 1.59028e-15 3.18055e-15 -100.482 -14.3197 -2.62009 -62.1835 9.63144 22.2882 179.997 78.1223 118.313 -13.6354 6.13491 -0.000139433 6.1268 31.7954 -3.23742 -4.77083e-15 -3.18055e-15 3.18055e-15 -3.18055e-15 -3.18055e-15 -4.77083e-15 -99.3752 5.96354e-15 5.56597e-15 3.18055e-15 -1.59028e-15 -1.59028e-15 3.18055e-15 4.37326e-15 -0.0 -112.724 1.03368e-14 1.11319e-14 -3.18055e-15 7.95139e-16 1.59028e-15 -3.18055e-15 -3.18055e-15 2.38542e-15 -94.5227 -7.95139e-16 6.36111e-15 -1.65521e-31 -5.96354e-15 -1.59028e-15 6.36111e-15 1.07344e-14 7.95139e-16 -89.4629 9.54166e-15 5.56597e-15 -3.18055e-15 7.95139e-16 1.59028e-15 -0.0 -1.98785e-15 -0.0 -20.105 -0.559313 -19.9906 -2.99149e-15 39.5643 1.03143e-14 4.82004 -16.7988 -10.6968 3.97569e-16 0.0 -3.18055e-15 0.0 6.71905 -0.0 -14.338 7.94427 21.3297 -3.97569e-16 13.1507 -0.0 5.8046 -7.4513 -3.37427 -4.41391e-32 -7.95139e-16 -3.18055e-15 5.45842e-18 0.09833 -3.18056e-15
-4.07039 91.2607 -19.2435 -11.6666 9.68206 -173.002 -13.371 9.94906 0.824409 -2.44844 6.59659 1.04547 -2.03668 2.54888 0.88002 2.25799 1.93737 -0.990552 -1.89213 9.85153 1.99497 0.179415 -3.163 -1.59978 0.285879 -17.2339 -0.17376 103.244 -15.0588 3.49926 62.3323 6.60217 -22.5647 1.4386e-07 33.3394 -13.1757 12.66 -7.13776 -3.2054e-15 -4.11416 10.7174 0.76636 -1.59028e-15 0.0 9.54166e-15 -3.18055e-15 0.0 -0.0 3.62589 1.59028e-15 -0.0 1.59028e-15 1.59028e-15 3.18055e-15 -1.59028e-15 0.0 3.18055e-15 12.6031 2.38542e-15 3.18055e-15 8.82781e-32 7.95139e-16 -6.36111e-15 -2.64834e-31 -1.59028e-15 -9.54166e-15 20.4046 4.37326e-15 1.27222e-14 7.95139e-16 5.96354e-16 3.18055e-15 -1.98785e-16 -1.98785e-15 6.36111e-15 43.7108 1.59028e-14 2.54444e-14 5.56597e-15 -6.36111e-15 -9.54166e-15 -6.36111e-15 -3.18055e-15 -0.0 -98.2338 -15.7603 -2.25077 -64.786 22.53 21.1806 -180.0 59.8009 144.882 -3.86003 2.47733 6.36706e-15 -6.63339 10.5433 1.21903 0.0 3.18055e-15 -0.0 0.0 6.36111e-15 -0.0 -79.883 -9.54166e-15 -3.18055e-15 3.18055e-15 -1.59028e-15 -0.0 -3.18055e-15 0.0 3.18055e-15 -102.539 -9.54166e-15 -9.54166e-15 0.0 9.54166e-15 -0.0 -6.36111e-15 3.18055e-15 -0.0 -90.3147 -6.36111e-15 -6.36111e-15 3.18055e-15 3.18055e-15 -0.0 3.18055e-15 -3.18055e-15 3.18055e-15 -95.1256 -6.36111e-15 -6.36111e-15 3.18055e-15 -4.77083e-15 -0.0 -7.94503e-31 -4.77083e-15 -9.54166e-15 -19.6569 1.82302 -18.3874 -2.64542e-15 30.1886 3.6796e-15 2.0337 -21.4676 -8.16542 -6.95746e-16 -1.98785e-16 -3.18055e-15 -3.24092e-16 10.168 -3.2313e-15 -15.7282 6.11454 23.4685 -1.95358e-15 13.4539 3.2703e-15 6.69979 -7.4329 -1.43774 -1.98785e-16 0.0 3.18055e-15 -2.10662e-16 0.106986 6.36112e-15
-4.32635 91.1595 -19.0773 -12.4722 8.69829 -170.713 -12.6142 9.30855 0.717151 -2.40586 6.25375 1.031 -2.07372 2.64397 1.34492 2.15303 1.83149 -0.851774 -1.53017 7.68859 2.21989 -0.744107 -3.45811 -1.10426 -0.81757 -17.4841 -0.0365601 103.385 -15.0942 3.5457 61.5088 8.44117 -22.3956 -1.25973e-07 34.2291 -12.9209 12.7189 -7.09261 -0.0 -4.11934 10.6499 0.762552 3.18055e-15 3.18055e-15 3.18055e-15 -7.06225e-31 6.36111e-15 6.36111e-15 3.93354 1.59028e-15 -6.36111e-15 3.18055e-15 -3.18055e-15 1.27222e-14 1.59028e-15 -1.59028e-15 3.18055e-15 12.8795 3.97569e-15 -3.18055e-15 -7.95139e-16 0.0 -1.59028e-14 7.95139e-16 -1.59028e-15 -1.27222e-14 20.5131 4.37326e-15 6.36111e-15 -1.98785e-15 -2.78299e-15 -6.36111e-15 1.98785e-15 3.97569e-16 6.36111e-15 43.4902 1.27222e-14 9.54166e-15 7.06225e-31 -6.36111e-15 6.36111e-15 4.77083e-15 4.77083e-15 3.18055e-15 -100.722 -14.7113 -2.75306 -62.5895 6.45605 20.859 -180.0 79.0224 125.965 4.74159 -2.28888 -3.8079e-15 26.1582 37.9635 -16.8116 -6.36111e-15 -6.36111e-15 -4.77083e-15 1.59028e-15 -6.36111e-15 -4.77083e-15 40.561 -8.74653e-15 -1.03368e-14 3.18055e-15 -6.36111e-15 -3.37934e-15 3.18055e-15 2.98177e-15 3.37934e-15 28.9606 -6.75868e-15 -9.54166e-15 -3.18055e-15 1.78906e-15 6.95746e-15 -2.17247e-31 1.78906e-15 6.95746e-15 -9.66187 7.95139e-16 -2.60905e-15 7.95139e-16 -7.95139e-16 1.00138e-14 -1.59028e-15 3.97569e-16 -2.68359e-15 -64.4089 4.57205e-15 -5.36719e-15 -3.18055e-15 -7.7526e-15 -1.98785e-16 1.12555e-30 6.75868e-15 -9.54166e-15 -18.5129 3.63044 -18.7455 1.43235e-15 32.2692 -7.52306e-15 1.62513 -23.2287 -9.34956 3.97569e-16 -9.93923e-17 -0.0 4.96962e-17 10.2632 -0.0 -16.3614 5.49962 22.4788 7.95139e-16 13.6696 -0.0 6.55699 -7.39953 -2.74086 -1.98785e-16 -1.19271e-15 -3.18055e-15 -0.0 -0.0188957 -0.0
-1.20804 91.645 -23.8907 -10.98 8.617 -169.474 -11.0632 11.0641 0.218334 -2.07767 6.8424 0.917902 -1.70705 2.88168 0.575687 3.49961 1.69171 -1.09387 0.20407 7.5686 -0.374927 0.0280223 -3.54244 -4.96626 0.4292 -17.3454 -0.435726 103.224 -16.0059 3.70722 60.9927 3.76337 -21.7986 0.000877447 29.3883 -13.3653 13.5648 -7.37821 -0.000127773 -3.95792 9.83159 0.67689 -0.0 -1.59028e-15 -0.0 -8.82781e-32 1.59028e-15 3.18055e-15 3.67942 1.19271e-15 3.18055e-15 3.97569e-16 -3.97569e-16 -9.54166e-15 1.76556e-31 7.95139e-16 -1.27222e-14 12.5402 7.95139e-16 3.18055e-15 -9.93923e-16 0.0 -0.0 9.93923e-16 3.97569e-16 -0.0 20.18 2.38542e-15 9.54166e-15 -0.0 -7.95139e-16 -0.0 7.95139e-16 0.0 -3.18055e-15 43.3183 6.36111e-15 9.54166e-15 4.77083e-15 -3.18055e-15 -0.0 1.59028e-15 -3.18055e-15 3.18055e-15 -100.541 -14.3911 -2.64799 -62.077 4.9306 25.3757 -180.0 77.1796 128.828 1.38559 -0.0115116 2.35315e-05 21.2139 35.6942 -12.7604 -1.59028e-15 3.18055e-15 3.97569e-15 -5.73808e-31 3.18055e-15 1.03368e-14 4.45516 -1.59028e-15 -2.5842e-15 3.5863e-32 7.95139e-16 -2.5842e-15 3.97569e-16 0.0 6.4605e-16 -17.2841 0.0 -1.59028e-14 -3.18055e-15 -2.38542e-15 -2.38542e-15 -3.18055e-15 7.95139e-16 -3.97569e-15 -34.5826 1.11319e-14 -2.22639e-14 3.18055e-15 7.95139e-16 5.1684e-15 0.0 3.18055e-15 -0.0 -65.3563 1.82882e-14 -2.54444e-14 -3.18055e-15 -4.77083e-15 1.59028e-15 -3.18055e-15 2.38542e-15 3.18055e-15 -19.2135 -5.3429 -13.7408 -4.7324e-16 17.6944 4.17312e-15 3.87739 -7.63119 -1.07158 3.97569e-16 -1.59028e-15 -2.38542e-15 6.15789e-16 7.81338 -1.60518e-15 -12.1866 8.01443 20.8151 5.85344e-16 14.2228 3.28113e-15 3.83516 -9.08672 -3.46816 6.62086e-32 -1.19271e-15 3.18055e-15 2.15914e-16 -0.308568 3.1806e-15
11.5638 91.979 -39.7648 -5.28198 11.574 -168.047 -0.462224 7.58258 -1.13108 -1.54015 6.8494 0.477273 -0.111096 2.87146 -2.8786 6.50774 1.17141 -1.96689 2.05532 6.66562 -3.49725 -0.388593 -4.48879 -7.72485 0.30965 -17.8671 -0.622042 104.775 -17.0118 4.41244 56.6835 7.60634 2.38673 -1.08801e-06 74.2761 32.8216 7.48964 -7.36457 1.20263e-15 -8.7268 22.2547 3.32711 -3.18055e-15 0.0 1.19271e-15 -6.62086e-32 7.95139e-16 4.77083e-15 -16.9563 3.18055e-15 7.95139e-15 -3.18055e-15 1.59028e-15 -0.0 -3.18055e-15 -1.59028e-15 1.59028e-15 -7.22407 3.18055e-15 3.18055e-15 -6.36111e-15 3.18055e-15 -3.97569e-15 -4.41391e-32 -3.18055e-15 -7.95139e-16 12.2293 3.18055e-15 2.60905e-15 2.98177e-16 3.18055e-15 -4.00054e-15 3.18055e-15 3.18055e-15 -1.19271e-15 52.3043 3.18055e-15 -7.95139e-15 3.18055e-15 3.18055e-15 1.59028e-15 -6.36111e-15 -3.18055e-15 -3.18055e-15 -101.27 -12.6799 -2.50469 -65.7649 7.70572 29.4185 180.0 77.3439 145.48 -7.63042 1.81506 -5.71793e-15 18.4291 37.3217 -11.4216 -1.59028e-15 0.0 -1.59028e-15 -1.59028e-15 0.0 1.59028e-15 6.76099 -3.97569e-16 1.98785e-16 -3.18055e-15 -1.98785e-16 3.67752e-15 3.18055e-15 -5.96354e-16 3.47873e-15 -12.3692 -5.96354e-16 -1.2921e-15 9.54166e-15 -5.96354e-16 1.49089e-15 1.27222e-14 -7.95139e-16 9.93923e-17 -29.4517 2.38542e-15 -5.1684e-15 -9.54166e-15 -3.47873e-15 2.38542e-15 -3.18055e-15 2.88238e-15 -2.38542e-15 -60.7636 2.55935e-15 -7.55382e-15 -7.95139e-16 -3.00662e-15 3.97569e-16 -7.95139e-16 -3.05631e-15 1.98785e-16 -1.43548 8.45362 -8.82974 -4.43911e-16 12.0287 2.84546e-15 -3.41481 -13.7303 -10.4455 6.62086e-32 -2.38542e-15 1.59028e-15 -3.85227e-16 14.2453 -3.28146e-15 7.64648 9.80475 16.3562 3.30056e-15 30.5704 -1.1082e-14 -8.33171 -8.07534 -6.43398 2.64834e-31 4.77083e-15 -3.18055e-15 1.59028e-15 -9.14188 -0.0
